<?xml version="1.0" encoding="UTF-8" standalone="no"?>
<svg
   xmlns:dc="http://purl.org/dc/elements/1.1/"
   xmlns:cc="http://creativecommons.org/ns#"
   xmlns:rdf="http://www.w3.org/1999/02/22-rdf-syntax-ns#"
   xmlns:svg="http://www.w3.org/2000/svg"
   xmlns="http://www.w3.org/2000/svg"
   xmlns:sodipodi="http://sodipodi.sourceforge.net/DTD/sodipodi-0.dtd"
   xmlns:inkscape="http://www.inkscape.org/namespaces/inkscape"
   width="100.0mm"
   height="100.0mm"
   viewBox="0 0 100.0 100.0"
   version="1.1"
   id="svg8"
   sodipodi:docname="PCB-template.svg"
   inkscape:version="1.0.1 (3bc2e813f5, 2020-09-07)">
  <defs
     id="defs2">
    <clipPath
       clipPathUnits="userSpaceOnUse"
       id="clipPath950">
      <path
         d="M 0,113.168 H 283.465 V 0 H 0 Z"
         id="path948" />
    </clipPath>
    <clipPath
       clipPathUnits="userSpaceOnUse"
       id="clipPath362637">
      <path
         d="M 0,113.168 H 283.465 V 0 H 0 Z"
         id="path362635" />
    </clipPath>
  </defs>
  <sodipodi:namedview
     id="base"
     pagecolor="#ffffff"
     bordercolor="#666666"
     borderopacity="1.0"
     inkscape:pageopacity="0.0"
     inkscape:pageshadow="2"
     inkscape:zoom="1.979899"
     inkscape:cx="353.7254"
     inkscape:cy="157.17159"
     inkscape:document-units="mm"
     inkscape:current-layer="g17"
     inkscape:document-rotation="0"
     showgrid="false"
     inkscape:window-width="1920"
     inkscape:window-height="1006"
     inkscape:window-x="0"
     inkscape:window-y="0"
     inkscape:window-maximized="1" />
  <metadata
     id="metadata5">
    <rdf:RDF>
      <cc:Work
         rdf:about="">
        <dc:format>image/svg+xml</dc:format>
        <dc:type
           rdf:resource="http://purl.org/dc/dcmitype/StillImage" />
        <dc:title></dc:title>
      </cc:Work>
    </rdf:RDF>
  </metadata>
  <g
     inkscape:label="[fixed] BG"
     inkscape:groupmode="layer"
     sodipodi:insensitive="true"
     id="g15">
    <rect
       x="0"
       y="0"
       width="100.0"
       height="100.0"
       style="fill:#FFFFFF;fill-opacity:1;stroke:none"
       id="rect13" />
  </g>
  <g
     inkscape:label="Edge.Cuts"
     inkscape:groupmode="layer"
     id="g17"
     style="display:inline">
    <rect
       style="fill:none;stroke:#000000;stroke-width:0.194249;stroke-opacity:1"
       id="rect362903"
       width="30"
       height="50"
       x="17.609375"
       y="13.318359"
       ry="3" />
  </g>
  <g
     inkscape:label="B.Cu"
     inkscape:groupmode="layer"
     id="g19" />
  <g
     inkscape:label="B.Mask"
     inkscape:groupmode="layer"
     id="g21" />
  <g
     inkscape:label="B.SilkS"
     inkscape:groupmode="layer"
     id="g23" />
  <g
     inkscape:label="F.Cu"
     inkscape:groupmode="layer"
     id="g25" />
  <g
     inkscape:label="F.Mask"
     inkscape:groupmode="layer"
     id="g27" />
  <g
     inkscape:label="F.SilkS"
     inkscape:groupmode="layer"
     id="g29">
    <path
       style="fill:#000000;stroke-width:0.0422727"
       d="m 36.530995,54.33968 h -2.536358 v -3.635444 -3.635444 h 0.169092 0.169089 v -0.2325 -0.232498 h 0.16909 0.169091 v 3.529763 3.529763 h 1.859995 1.859995 V 38.31836 22.9734 H 36.530995 34.671 v 11.181107 11.181106 h -0.169092 -0.169089 v -0.169088 -0.169092 h -0.16909 -0.169092 V 33.647236 22.297038 h 2.536358 2.536357 V 38.31836 54.33968 Z m 0,-1.733176 h -1.183634 v -0.887726 -0.887725 h 0.294566 0.294568 l 0.01191,0.496703 0.01191,0.496703 0.137387,0.01325 0.137386,0.01325 V 51.34101 50.83106 h 0.295908 0.295908 v 0.507272 0.507272 h 0.147954 0.147954 V 51.338331 50.83106 h 0.295908 0.295909 v 0.887726 0.887725 z m 0,-2.029086 h -1.183634 v -0.908862 -0.908861 h 0.676363 0.67636 v 0.105682 c 0,0.06576 0.02396,0.105681 0.06341,0.105681 0.03945,0 0.06341,-0.03992 0.06341,-0.105681 v -0.105682 h 0.443863 0.443862 v 0.380454 0.380454 h -0.422725 -0.422727 v 0.147953 0.147954 h 0.422727 0.422725 v 0.380454 0.380454 z m -0.422727,-1.014543 c -0.112726,0 -0.126817,0.01409 -0.126817,0.126818 0,0.104675 0.01722,0.126817 0.09864,0.126817 0.12402,0 0.155,-0.03098 0.155,-0.154998 0,-0.08141 -0.02214,-0.09864 -0.126817,-0.09864 z m 0.422727,-1.056816 H 35.347361 V 47.618334 46.73061 h 0.294566 0.294568 l 0.01191,0.496702 0.01191,0.496703 0.137387,0.01325 0.137386,0.01325 v -0.50995 -0.50995 h 0.295908 0.295908 v 0.507271 0.507272 h 0.443862 0.443864 v 0.380453 0.380454 z m 0.386946,-1.986812 c -1.052222,0 -1.57058,-0.03697 -1.57058,-0.112012 0,-0.04607 -0.167182,-0.05708 -0.866588,-0.05708 h -0.866589 v 0.380454 0.380454 H 33.23373 32.853278 v 0.190227 0.190227 H 32.66305 32.472823 V 47.30129 47.111063 H 32.09237 31.711917 v -0.380454 -0.380454 h -0.190228 -0.190226 v -0.190227 -0.190226 h 0.190226 0.190228 v -0.380454 -0.380454 h 0.380453 0.380454 v -0.190226 -0.190227 h 0.190227 0.190227 v 0.190227 0.190226 h 0.380453 0.380453 v 0.190227 0.190227 h 0.380454 0.380454 v 0.190227 0.190227 h 0.190227 0.190226 v -0.380454 -0.380454 h 0.190227 0.190227 v 0.380454 c 0,0.377635 7.82e-4,0.380454 0.105681,0.380454 0.08455,0 0.105682,-0.02114 0.105682,-0.105682 v -0.105682 h 1.183633 1.183633 v 0.380453 0.380454 z m -0.386946,-1.014543 h -1.183634 v -0.380453 -0.380454 h 0.147954 c 0.135502,0 0.147954,-0.01045 0.147954,-0.124139 0,-0.109156 0.01658,-0.125738 0.137386,-0.137386 0.121431,-0.01171 0.139841,-0.03043 0.158523,-0.1612 0.01878,-0.131434 0.03676,-0.149456 0.161088,-0.161393 0.08451,-0.0081 0.133389,-0.03323 0.123386,-0.06341 -0.01094,-0.03298 -0.162715,-0.05407 -0.44643,-0.06202 l -0.429861,-0.01205 V 43.66436 43.306522 h 1.183633 1.183633 v 0.359316 0.359319 h -0.147954 c -0.140389,0 -0.147954,0.0074 -0.147954,0.145274 0,0.133004 -0.01161,0.146395 -0.137385,0.158524 -0.120804,0.01165 -0.138986,0.02983 -0.150633,0.150632 -0.01165,0.120802 -0.02823,0.137386 -0.137387,0.137386 -0.09596,0 -0.124139,0.01919 -0.124139,0.08454 0,0.07891 0.02818,0.08455 0.422726,0.08455 h 0.422726 v 0.359317 0.359317 z m 0,-2.451812 H 35.347361 V 42.228576 41.40426 h 0.105681 c 0.08455,0 0.105682,-0.02114 0.105682,-0.10568 v -0.105683 h 0.972271 0.97227 v 0.105683 c 0,0.08455 0.02114,0.10568 0.105682,0.10568 h 0.10568 v 0.824317 0.824316 z m 0,-1.099088 h -0.549544 v 0.169091 0.16909 h 0.549544 0.549544 v -0.16909 -0.169091 z m 0,-1.056815 h -1.183634 v -0.887725 -0.887725 h 0.294566 0.294568 l 0.01191,0.496703 0.01191,0.496703 0.137387,0.01325 0.137386,0.01325 v -0.509949 -0.50995 h 0.295908 0.295908 v 0.507265 0.507271 h 0.147954 0.147954 v -0.507271 -0.507272 h 0.295908 0.295909 v 0.887725 0.887725 z m 0,-2.029086 h -1.183634 v -0.887725 -0.887725 h 0.673423 c 0.645184,0 0.673988,0.0036 0.686929,0.08622 0.0074,0.04742 0.03253,0.08622 0.05578,0.08622 0.02325,0 0.04835,-0.0388 0.05578,-0.08622 0.0126,-0.0804 0.04325,-0.08622 0.454431,-0.08622 h 0.440922 v 0.359318 0.359317 h -0.422725 -0.422726 v 0.147954 0.147955 h 0.422726 0.422725 v 0.380454 0.380453 z M 36.108268,37.85336 c -0.112726,0 -0.126817,0.01409 -0.126817,0.126818 0,0.112728 0.01409,0.126818 0.126817,0.126818 0.112728,0 0.126819,-0.01409 0.126819,-0.126818 0,-0.112727 -0.01409,-0.126818 -0.126819,-0.126818 z m 1.479542,-1.352722 c -0.116752,0 -0.126818,0.01174 -0.126818,0.147954 v 0.147953 H 36.55213 35.643269 v -0.147953 c 0,-0.136212 -0.01007,-0.147954 -0.126817,-0.147954 h -0.126819 v -0.845451 -0.845453 h 0.295909 0.295908 v 0.612952 0.612953 h 0.57068 0.570681 V 35.718595 35.40155 h -0.211363 -0.211364 v -0.295909 -0.295908 h 0.507272 0.507271 v 0.845453 0.845452 z m -1.056815,-1.944541 h -1.183634 v -0.887726 -0.887725 h 1.183634 1.183632 v 0.380453 0.380454 h -0.317044 -0.317044 v 0.126818 0.126818 h 0.317044 0.317044 v 0.380454 0.380454 z m -0.317046,-1.014544 h -0.317044 v 0.126818 0.126818 h 0.317044 0.317046 v -0.126818 -0.126818 z m 0.317046,-1.056815 h -1.183634 v -0.887723 -0.887726 h 0.676363 0.67636 v 0.105681 c 0,0.06576 0.02396,0.105683 0.06341,0.105683 0.03945,0 0.06341,-0.03992 0.06341,-0.105683 v -0.105681 h 0.443863 0.443862 v 0.380453 0.380455 h -0.422725 -0.422727 v 0.147952 0.147955 h 0.422727 0.422725 v 0.359318 0.359316 z m -0.422727,-1.014541 c -0.112726,0 -0.126817,0.0141 -0.126817,0.126818 0,0.112725 0.01409,0.126817 0.126817,0.126817 0.112728,0 0.126819,-0.0141 0.126819,-0.126817 0,-0.112729 -0.01409,-0.126818 -0.126819,-0.126818 z m 0.422727,-1.014543 h -1.183634 v -0.845452 -0.845454 h 0.105681 c 0.08455,0 0.105682,-0.02114 0.105682,-0.105681 v -0.105683 h 0.972271 0.97227 v 0.105683 c 0,0.08455 0.02114,0.105681 0.105682,0.105681 h 0.10568 v 0.845454 0.845452 z m 0,-1.141362 h -0.549544 v 0.169089 0.169093 h 0.549544 0.549544 v -0.169093 -0.169089 z m 0,-1.014543 H 35.347361 V 27.412025 26.5243 h 0.294566 0.294568 l 0.01191,0.496703 0.01191,0.496703 0.137387,0.01324 0.137386,0.01324 v -0.509949 -0.50995 h 0.294567 0.294567 l 0.01191,0.496704 0.01191,0.496703 h 0.126817 0.126819 l 0.01191,-0.496703 0.01191,-0.496704 h 0.294567 0.294566 v 0.887724 0.887725 z m 0,-2.029085 H 35.347361 V 25.89021 25.509756 h 0.147954 c 0.140909,0 0.147954,-0.007 0.147954,-0.147954 0,-0.140906 0.007,-0.147953 0.147954,-0.147953 0.140909,0 0.147955,-0.007 0.147955,-0.147954 0,-0.140908 0.007,-0.147953 0.147954,-0.147953 0.103333,0 0.147954,-0.01912 0.147954,-0.06341 0,-0.05234 -0.0775,-0.06341 -0.443863,-0.06341 h -0.443862 v -0.359318 -0.359316 h 1.183633 1.183633 v 0.359317 0.359318 h -0.147954 c -0.140389,0 -0.147954,0.0074 -0.147954,0.145276 0,0.133003 -0.01161,0.146395 -0.137385,0.158522 -0.120804,0.01166 -0.138986,0.02983 -0.150633,0.150634 -0.01165,0.120801 -0.02823,0.137385 -0.137387,0.137385 -0.08216,0 -0.124139,0.02144 -0.124139,0.06341 0,0.05214 0.07515,0.06341 0.422726,0.06341 h 0.422726 v 0.380452 0.380455 z m -3.011199,22.422344 c -0.121662,0.106428 -0.234328,0.193505 -0.250366,0.193505 -0.01604,0 -0.120236,-0.106605 -0.23155,-0.236897 l -0.202389,-0.236899 0.146278,-0.123419 c 0.08045,-0.06788 0.195654,-0.160217 0.255998,-0.20519 l 0.109718,-0.08177 0.196759,0.227905 c 0.108217,0.125348 0.196758,0.237211 0.196758,0.248585 0,0.01138 -0.09954,0.107756 -0.221205,0.214185 z m -0.327671,1.53566 c -0.06725,0.145312 -0.14301,0.264204 -0.168356,0.264204 -0.05826,0 -0.550946,-0.247337 -0.550946,-0.276586 0,-0.02083 0.251804,-0.534295 0.274799,-0.56036 0.01671,-0.01894 0.570961,0.259696 0.568713,0.285907 -0.0011,0.01245 -0.05696,0.141523 -0.12421,0.286835 z"
       id="path362556" />
    <g
       id="g362633"
       clip-path="url(#clipPath362637)"
       transform="matrix(0,-0.12338647,-0.12338647,0,31.600264,55.806189)">
      <g
         id="g362639"
         transform="translate(239.3045,62.1377)">
        <path
           d="m 0,0 -0.766,0.378 -36.011,17.976 -0.476,0.237 0.528,0.035 28.226,1.523 L -36.179,18.38 -1.232,1.364 C -3.593,7.521 -5.9,13.65 -8.19,19.807 l -0.123,0.352 0.361,0.018 0.378,0.026 C -5.126,13.738 -2.686,7.257 -0.299,0.801 Z"
           style="fill:#444141;fill-opacity:1;fill-rule:nonzero;stroke:none"
           id="path362641" />
      </g>
      <g
         id="g362643"
         transform="translate(188.6912,58.2715)">
        <path
           d="M 0,0 -12.639,-0.881 -12.867,-0.898 2.246,8.612 12.021,0.66 C 7.979,0.466 3.98,0.255 0,0 M 12.814,0.643 2.343,8.886 2.264,8.956 2.175,8.895 l -15.236,-9.909 -0.194,-0.123 12.867,0.573 c 4.377,0.229 8.745,0.502 13.07,0.775 l 0.633,0.044 z"
           style="fill:#444141;fill-opacity:1;fill-rule:nonzero;stroke:none"
           id="path362645" />
      </g>
      <g
         id="g362647"
         transform="translate(275.8094,61.9697)">
        <path
           d="M 0,0 -0.66,-0.528 -9.019,-7.222 -9.142,-7.318 -9.3,-7.274 c -1.823,0.51 -3.681,1.047 -5.531,1.637 l -5.231,1.727 0.238,0.044 c 0.07,0.017 0.149,0.026 0.22,0.044 l 0.22,-0.062 5.179,-1.312 c 1.638,-0.422 3.258,-0.908 4.923,-1.418 l 7.715,5.91 c -5.848,-1.013 -11.785,-1.982 -17.755,-3.066 6.094,1.137 12.25,2.405 18.494,3.612 z"
           style="fill:#444141;fill-opacity:1;fill-rule:nonzero;stroke:none"
           id="path362649" />
      </g>
      <g
         id="g362651"
         transform="translate(168.3289,103.1377)">
        <path
           d="m 0,0 -54.409,-34.021 -0.379,-0.238 -0.599,-0.37 -45.223,-28.076 -5.276,-0.591 26.148,23.692 0.308,-0.23 -0.132,0.353 79.544,40.388 c 0,-0.228 0,-0.458 0.018,-0.686 z m -106.679,-63.419 -0.493,-0.449 0.142,0.017 -5.795,-5.293 0.035,0.009 -0.053,-0.026 0.018,0.017 -3.849,-0.889 -0.035,-0.009 -0.027,-0.026 -3.056,-3.453 -0.123,-0.017 c -6.773,-1.057 -13.58,-2.14 -20.406,-3.285 l -19.472,-3.338 40.063,20.221 38.31,19.569 z m -19.092,-16.672 c -5.778,0.035 -11.609,0.071 -17.439,0.027 l -16.063,-0.176 19.462,2.985 c 5.972,0.934 11.952,1.929 17.958,2.942 l 1.366,0.211 z m -34.127,0.044 27.212,29.653 26.897,29.601 25.559,-18.46 -40.117,-20.432 z m 71.081,63.401 8.568,-22.105 -25.047,18.248 c 5.558,1.233 10.983,2.467 16.479,3.857 m 21.656,-15.861 -12.595,-6.446 -6.895,18.441 9.801,-6.129 c 3.206,-1.972 6.43,-3.92 9.689,-5.866 m -19.922,13.22 c 9.52,5.751 19.006,11.511 28.526,17.35 l 10.674,-20.697 -18.723,-9.591 c -3.391,2.096 -6.826,4.21 -10.296,6.288 l -9.908,5.866 -0.291,0.775 z M 0.035,-38.936 v -0.123 l -7.873,-5.698 -8.578,20.899 L 0.15,-6.729 Z M 0.784,0.256 c 0.035,0.449 0.07,0.897 0.079,1.355 l 0.018,0.741 -0.652,-0.344 -47.76,-24.466 -10.639,21.075 -0.149,0.282 -0.273,-0.168 c -9.582,-5.751 -19.181,-11.545 -28.755,-17.384 l -0.942,2.528 -0.107,0.272 -0.29,-0.07 c -5.663,-1.321 -11.405,-2.801 -17.015,-4.289 l -0.167,0.123 -0.158,-0.176 -27.364,-30.093 -26.914,-29.891 -0.008,-0.009 h -0.16 l 0.045,-0.009 -0.247,-0.044 h 0.274 l -0.072,-0.035 0.098,0.018 -0.08,-0.088 0.203,0.105 0.211,-0.061 h 0.229 l 17.041,-0.194 c 1.885,-0.009 3.77,-0.018 5.664,-0.018 h 0.51 l 10.199,-0.132 -2.158,-2.466 -12.004,-2.298 -19.243,5.046 19.199,-5.301 0.027,-0.009 0.026,0.009 12.136,2.174 0.07,0.018 0.044,0.044 2.739,3.03 0.335,0.378 h -0.061 l 5.574,6.183 0.432,0.475 -0.202,-0.035 2.888,3.233 3.858,0.872 0.035,0.009 0.017,0.017 6.113,5.53 0.07,0.009 5.451,0.617 -0.193,-0.124 -0.035,-0.026 0.035,-0.026 3.099,-2.545 0.009,-0.009 0.018,0.009 14.003,3.241 -14.003,-3.189 0.009,-0.008 h -0.027 l 0.018,0.008 -3.056,2.519 0.273,0.168 h 0.008 l 0.362,0.044 0.044,0.009 0.035,0.026 40.178,25.135 0.335,0.212 60.142,37.332 -0.009,-5.469 -16.918,-17.834 -0.071,-0.07 0.045,-0.098 8.833,-20.934 -12.823,-9.273 -23.048,3.267 -0.132,0.017 -0.123,-0.079 -19.287,-12.743 -18.037,1.594 -1.374,-0.318 -1.374,-0.316 1.4,-0.124 19.464,-1.664 0.141,-0.018 0.123,0.079 19.234,12.815 23.039,-3.189 0.142,-0.017 0.105,0.079 21.067,15.324 0.123,0.088 v 0.361 l 0.096,0.071 -0.114,32.815 v 0.695 L 0.661,-5.39 0.652,0 v 0.176 z"
           style="fill:#444141;fill-opacity:1;fill-rule:nonzero;stroke:none"
           id="path362653" />
      </g>
      <g
         id="g362655"
         transform="translate(66.3973,27.7324)">
        <path
           d="m 0,0 -0.978,-0.229 c -6.507,-1.533 -12.955,-2.968 -19.278,-4.509 6.148,1.523 12.198,3.135 18.187,4.668 l -10.155,1.637 c -1.295,-1.065 -2.562,-2.104 -3.875,-3.108 l -4.139,-3.092 -0.194,-0.149 c -0.061,-0.009 -0.131,-0.027 -0.194,-0.044 l -0.237,-0.062 4.015,3.514 c 1.418,1.225 2.88,2.404 4.316,3.541 l 0.124,0.097 0.14,-0.027 11.273,-2.051 z"
           style="fill:#444141;fill-opacity:1;fill-rule:nonzero;stroke:none"
           id="path362657" />
      </g>
      <g
         id="g362659"
         transform="translate(125.0516,46.6855)">
        <path
           d="M 0,0 C -2.052,-0.802 -4.112,-1.647 -6.209,-2.493 L -2.633,0 c 1.118,0.801 2.211,1.646 3.329,2.536 L 5.408,1.981 C 3.576,1.329 1.779,0.687 0,0 M 7.311,2.192 6.403,2.298 5.795,2.369 0.652,3.152 0.528,3.17 0.423,3.091 C -0.827,2.157 -2.113,1.18 -3.355,0.149 l -3.479,-2.941 0.238,0.088 -0.194,-0.15 c 2.167,0.731 4.359,1.454 6.561,2.228 2.264,0.793 4.5,1.647 6.676,2.483 L 6.993,2.069 7.239,2.157 H 7.222 Z"
           style="fill:#444141;fill-opacity:1;fill-rule:nonzero;stroke:none"
           id="path362661" />
      </g>
      <g
         id="g362663"
         transform="translate(77.4217,23.622)">
        <path
           d="m 0,0 c 0,-2.32 -0.307,-4.46 -0.919,-6.417 -0.615,-1.957 -1.501,-3.64 -2.662,-5.048 -1.161,-1.41 -2.575,-2.509 -4.24,-3.297 -1.667,-0.786 -3.545,-1.181 -5.634,-1.181 -2.091,0 -3.947,0.395 -5.571,1.181 -1.625,0.788 -2.995,1.891 -4.106,3.309 -1.109,1.419 -1.956,3.1 -2.535,5.05 -0.581,1.947 -0.871,4.083 -0.871,6.403 v 5.272 c 0,2.322 0.29,4.461 0.871,6.419 0.579,1.956 1.426,3.644 2.535,5.063 1.111,1.415 2.477,2.523 4.092,3.318 1.618,0.796 3.47,1.194 5.56,1.194 2.105,0 3.992,-0.398 5.659,-1.194 1.665,-0.795 3.079,-1.903 4.24,-3.318 1.161,-1.419 2.047,-3.107 2.662,-5.063 C -0.307,9.733 0,7.594 0,5.272 Z m -7.088,5.322 c 0,1.478 -0.121,2.835 -0.36,4.081 -0.242,1.243 -0.619,2.311 -1.132,3.208 -0.514,0.895 -1.175,1.595 -1.978,2.101 -0.804,0.505 -1.778,0.759 -2.922,0.759 -1.128,0 -2.073,-0.254 -2.836,-0.759 -0.763,-0.506 -1.376,-1.206 -1.841,-2.101 -0.464,-0.897 -0.796,-1.965 -0.993,-3.208 -0.201,-1.246 -0.3,-2.603 -0.3,-4.081 V 0 c 0,-1.458 0.099,-2.811 0.3,-4.055 0.197,-1.243 0.529,-2.32 0.993,-3.233 0.465,-0.912 1.078,-1.625 1.841,-2.139 0.763,-0.512 1.716,-0.771 2.861,-0.771 1.127,0 2.093,0.259 2.897,0.771 0.803,0.514 1.459,1.224 1.965,2.127 0.505,0.905 0.882,1.977 1.131,3.221 0.249,1.244 0.374,2.603 0.374,4.079 z"
           style="fill:#444141;fill-opacity:1;fill-rule:nonzero;stroke:none"
           id="path362665" />
      </g>
      <g
         id="g362667"
         transform="translate(83.1795,8.1777)">
        <path
           d="m 0,0 v 36.214 h 12.163 c 1.972,0 3.767,-0.199 5.384,-0.598 1.616,-0.397 2.998,-1.004 4.142,-1.815 1.143,-0.812 2.027,-1.84 2.648,-3.085 0.622,-1.242 0.932,-2.711 0.932,-4.401 -0.016,-1.692 -0.469,-3.211 -1.355,-4.552 -0.887,-1.344 -2.191,-2.365 -3.916,-3.062 1.044,-0.264 1.947,-0.661 2.71,-1.192 0.763,-0.53 1.397,-1.155 1.904,-1.877 0.504,-0.722 0.878,-1.511 1.117,-2.363 0.24,-0.855 0.362,-1.738 0.362,-2.65 0,-1.741 -0.298,-3.275 -0.896,-4.601 C 24.599,4.691 23.744,3.581 22.633,2.686 21.523,1.791 20.172,1.118 18.578,0.67 16.987,0.222 15.197,0 13.207,0 Z m 7.015,21.016 h 5.197 c 1.94,0.017 3.433,0.424 4.476,1.218 1.046,0.796 1.577,1.965 1.593,3.507 0,1.693 -0.522,2.906 -1.567,3.645 -1.044,0.738 -2.555,1.115 -4.526,1.132 H 7.015 Z m 0,-5.05 V 5.646 h 6.216 c 1.907,0.015 3.363,0.484 4.367,1.403 1.002,0.922 1.504,2.128 1.504,3.621 0.015,1.658 -0.431,2.95 -1.343,3.88 -0.912,0.928 -2.322,1.4 -4.228,1.416 z"
           style="fill:#444141;fill-opacity:1;fill-rule:nonzero;stroke:none"
           id="path362669" />
      </g>
      <g
         id="g362671"
         transform="translate(136.49,24.0449)">
        <path
           d="M 0,0 H -14.872 V -10.222 H 2.512 v -5.645 H -21.887 V 20.347 H 2.438 V 14.65 h -17.31 V 5.521 H 0 Z"
           style="fill:#444141;fill-opacity:1;fill-rule:nonzero;stroke:none"
           id="path362673" />
      </g>
      <g
         id="g362675"
         transform="translate(157.0584,21.707)">
        <path
           d="m 0,0 h -5.296 v -13.529 h -6.991 v 36.214 h 12.14 c 2.005,0 3.821,-0.237 5.447,-0.71 1.623,-0.473 3.013,-1.165 4.165,-2.079 1.153,-0.909 2.041,-2.045 2.661,-3.405 0.622,-1.359 0.934,-2.934 0.934,-4.726 0,-1.292 -0.154,-2.458 -0.46,-3.494 C 12.291,7.234 11.853,6.305 11.28,5.484 10.708,4.664 10.021,3.946 9.216,3.334 8.412,2.719 7.512,2.188 6.518,1.741 l 7.785,-14.948 v -0.322 H 6.815 Z m -5.296,5.672 h 5.174 c 1.972,0 3.493,0.5 4.562,1.505 1.071,1.003 1.605,2.375 1.605,4.114 0,1.809 -0.523,3.214 -1.566,4.216 -1.045,1.004 -2.587,1.506 -4.626,1.506 h -5.149 z"
           style="fill:#444141;fill-opacity:1;fill-rule:nonzero;stroke:none"
           id="path362677" />
      </g>
      <g
         id="g362679"
         transform="translate(183.1844,13.8232)">
        <path
           d="M 0,0 H 16.963 V -5.646 H -7.015 V 30.568 H 0 Z"
           style="fill:#444141;fill-opacity:1;fill-rule:nonzero;stroke:none"
           id="path362681" />
      </g>
      <g
         id="g362683"
         transform="translate(224.9402,15.7383)">
        <path
           d="m 0,0 h -10.87 l -2.138,-7.561 h -7.362 l 11.864,36.214 h 6.342 L 9.477,-7.561 H 2.114 Z m -9.153,5.945 h 7.511 l -3.707,13.331 z"
           style="fill:#444141;fill-opacity:1;fill-rule:nonzero;stroke:none"
           id="path362685" />
      </g>
      <g
         id="g362687"
         transform="translate(238.6687,8.1777)">
        <path
           d="m 0,0 v 36.214 h 12.163 c 1.974,0 3.769,-0.199 5.385,-0.598 1.616,-0.397 2.996,-1.004 4.14,-1.815 1.145,-0.812 2.027,-1.84 2.65,-3.085 0.622,-1.242 0.932,-2.711 0.932,-4.401 -0.017,-1.692 -0.469,-3.211 -1.356,-4.552 -0.887,-1.344 -2.193,-2.365 -3.917,-3.062 1.045,-0.264 1.948,-0.661 2.712,-1.192 0.762,-0.53 1.396,-1.155 1.902,-1.877 0.505,-0.722 0.879,-1.511 1.119,-2.363 0.24,-0.855 0.361,-1.738 0.361,-2.65 0,-1.741 -0.298,-3.275 -0.895,-4.601 C 24.599,4.691 23.744,3.581 22.635,2.686 21.522,1.791 20.172,1.118 18.579,0.67 16.987,0.222 15.197,0 13.207,0 Z m 7.015,21.016 h 5.197 c 1.94,0.017 3.433,0.424 4.477,1.218 1.044,0.796 1.576,1.965 1.591,3.507 0,1.693 -0.522,2.906 -1.566,3.645 -1.045,0.738 -2.554,1.115 -4.527,1.132 H 7.015 Z m 0,-5.05 V 5.646 h 6.217 c 1.907,0.015 3.361,0.484 4.365,1.403 1.004,0.922 1.506,2.128 1.506,3.621 0.016,1.658 -0.433,2.95 -1.345,3.88 -0.911,0.928 -2.321,1.4 -4.229,1.416 z"
           style="fill:#444141;fill-opacity:1;fill-rule:nonzero;stroke:none"
           id="path362689" />
      </g>
    </g>
    <g
       aria-label="Grove adapter for Sensirion "
       transform="rotate(-90,65.181959,58.55917)"
       id="text362777"
       style="font-style:normal;font-weight:normal;font-size:10.5833px;line-height:1.25;font-family:sans-serif;white-space:pre;inline-size:85.8548;fill:#000000;fill-opacity:1;stroke:none;stroke-width:0.264583">
      <path
         d="M 67.490374,35.007713 V 34.45512 h -0.454752 v -0.228754 h 0.73036 v 0.883322 q -0.161231,0.114377 -0.355534,0.173633 -0.194303,0.05788 -0.414789,0.05788 -0.482313,0 -0.755165,-0.281119 -0.271473,-0.282498 -0.271473,-0.785481 0,-0.504362 0.271473,-0.785482 0.272852,-0.282497 0.755165,-0.282497 0.201193,0 0.381716,0.04961 0.181901,0.04961 0.334863,0.146072 v 0.296278 q -0.15434,-0.130914 -0.327973,-0.197059 -0.173632,-0.06615 -0.36518,-0.06615 -0.377582,0 -0.567751,0.21084 -0.188791,0.210839 -0.188791,0.628385 0,0.416167 0.188791,0.627006 0.190169,0.21084 0.567751,0.21084 0.14745,0 0.263206,-0.02481 0.115755,-0.02618 0.208083,-0.07993 z"
         style="font-style:normal;font-variant:normal;font-weight:normal;font-stretch:normal;font-size:2.82222px;font-family:sans-serif;-inkscape-font-specification:'sans-serif, Normal';font-variant-ligatures:normal;font-variant-caps:normal;font-variant-numeric:normal;font-variant-east-asian:normal;stroke-width:0.264583"
         id="path362821" />
      <path
         d="m 69.157799,33.994856 q -0.04272,-0.02481 -0.09371,-0.03583 -0.04961,-0.0124 -0.110243,-0.0124 -0.214974,0 -0.330729,0.140559 -0.114377,0.139182 -0.114377,0.401009 v 0.813042 h -0.254937 v -1.543401 h 0.254937 v 0.239778 q 0.07993,-0.14056 0.208083,-0.208084 0.128158,-0.0689 0.311437,-0.0689 0.02618,0 0.05788,0.0041 0.03169,0.0028 0.07028,0.0096 z"
         style="font-style:normal;font-variant:normal;font-weight:normal;font-stretch:normal;font-size:2.82222px;font-family:sans-serif;-inkscape-font-specification:'sans-serif, Normal';font-variant-ligatures:normal;font-variant-caps:normal;font-variant-numeric:normal;font-variant-east-asian:normal;stroke-width:0.264583"
         id="path362823" />
      <path
         d="m 69.959817,33.9356 q -0.20395,0 -0.322461,0.159853 -0.118511,0.158474 -0.118511,0.435459 0,0.276986 0.117133,0.436838 0.118511,0.158474 0.323839,0.158474 0.202571,0 0.321082,-0.159852 0.118512,-0.159852 0.118512,-0.43546 0,-0.274229 -0.118512,-0.434081 Q 70.162388,33.9356 69.959817,33.9356 Z m 0,-0.214973 q 0.330729,0 0.51952,0.214973 0.188791,0.214974 0.188791,0.595312 0,0.378961 -0.188791,0.595312 -0.188791,0.214974 -0.51952,0.214974 -0.332107,0 -0.520898,-0.214974 -0.187413,-0.216351 -0.187413,-0.595312 0,-0.380338 0.187413,-0.595312 0.188791,-0.214973 0.520898,-0.214973 z"
         style="font-style:normal;font-variant:normal;font-weight:normal;font-stretch:normal;font-size:2.82222px;font-family:sans-serif;-inkscape-font-specification:'sans-serif, Normal';font-variant-ligatures:normal;font-variant-caps:normal;font-variant-numeric:normal;font-variant-east-asian:normal;stroke-width:0.264583"
         id="path362825" />
      <path
         d="m 70.906528,33.757834 h 0.268717 l 0.482313,1.295355 0.482313,-1.295355 h 0.268718 l -0.578776,1.543401 h -0.344509 z"
         style="font-style:normal;font-variant:normal;font-weight:normal;font-stretch:normal;font-size:2.82222px;font-family:sans-serif;-inkscape-font-specification:'sans-serif, Normal';font-variant-ligatures:normal;font-variant-caps:normal;font-variant-numeric:normal;font-variant-east-asian:normal;stroke-width:0.264583"
         id="path362827" />
      <path
         d="m 74.07877,34.466145 v 0.124023 h -1.16582 q 0.01654,0.261827 0.157097,0.399631 0.141937,0.136425 0.394118,0.136425 0.146072,0 0.282498,-0.03583 0.137804,-0.03583 0.272851,-0.107487 v 0.239778 q -0.136425,0.05788 -0.279741,0.08819 -0.143316,0.03032 -0.290766,0.03032 -0.369314,0 -0.585666,-0.214974 -0.214974,-0.214973 -0.214974,-0.581531 0,-0.37896 0.20395,-0.600824 0.205327,-0.223242 0.552593,-0.223242 0.311436,0 0.491959,0.201193 0.181901,0.199815 0.181901,0.544325 z m -0.253559,-0.07441 q -0.0028,-0.208084 -0.117133,-0.332107 -0.112999,-0.124024 -0.300412,-0.124024 -0.212218,0 -0.340375,0.11989 -0.12678,0.119889 -0.146072,0.337619 z"
         style="font-style:normal;font-variant:normal;font-weight:normal;font-stretch:normal;font-size:2.82222px;font-family:sans-serif;-inkscape-font-specification:'sans-serif, Normal';font-variant-ligatures:normal;font-variant-caps:normal;font-variant-numeric:normal;font-variant-east-asian:normal;stroke-width:0.264583"
         id="path362829" />
      <path
         d="m 76.09346,34.5254 q -0.307303,0 -0.425814,0.07028 -0.118511,0.07028 -0.118511,0.239779 0,0.135047 0.08819,0.214973 0.08957,0.07855 0.242535,0.07855 0.21084,0 0.337619,-0.148828 0.128158,-0.150207 0.128158,-0.398253 v -0.0565 z m 0.505739,-0.104731 v 0.880566 h -0.253558 v -0.234266 q -0.08682,0.14056 -0.216352,0.208083 -0.129536,0.06615 -0.316949,0.06615 -0.237022,0 -0.377582,-0.132291 -0.139182,-0.13367 -0.139182,-0.356912 0,-0.260449 0.173633,-0.392741 0.175011,-0.132291 0.520898,-0.132291 h 0.355534 v -0.02481 q 0,-0.17501 -0.115756,-0.270095 -0.114377,-0.09646 -0.32246,-0.09646 -0.132292,0 -0.257693,0.03169 -0.125402,0.03169 -0.241157,0.09508 v -0.234267 q 0.139182,-0.05374 0.270096,-0.07993 0.130913,-0.02756 0.254936,-0.02756 0.334863,0 0.500228,0.173632 0.165364,0.173633 0.165364,0.52641 z"
         style="font-style:normal;font-variant:normal;font-weight:normal;font-stretch:normal;font-size:2.82222px;font-family:sans-serif;-inkscape-font-specification:'sans-serif, Normal';font-variant-ligatures:normal;font-variant-caps:normal;font-variant-numeric:normal;font-variant-east-asian:normal;stroke-width:0.264583"
         id="path362831" />
      <path
         d="m 78.137089,33.9921 v -0.835091 h 0.253559 v 2.144226 h -0.253559 v -0.23151 q -0.07993,0.137804 -0.202571,0.205327 -0.121268,0.06615 -0.292144,0.06615 -0.279742,0 -0.456131,-0.223242 -0.17501,-0.223242 -0.17501,-0.587044 0,-0.363801 0.17501,-0.587043 0.176389,-0.223242 0.456131,-0.223242 0.170876,0 0.292144,0.06752 0.122645,0.06615 0.202571,0.20395 z m -0.864029,0.538812 q 0,0.279742 0.114377,0.439594 0.115755,0.158475 0.316948,0.158475 0.201194,0 0.316949,-0.158475 0.115755,-0.159852 0.115755,-0.439594 0,-0.279741 -0.115755,-0.438215 -0.115755,-0.159853 -0.316949,-0.159853 -0.201193,0 -0.316948,0.159853 -0.114377,0.158474 -0.114377,0.438215 z"
         style="font-style:normal;font-variant:normal;font-weight:normal;font-stretch:normal;font-size:2.82222px;font-family:sans-serif;-inkscape-font-specification:'sans-serif, Normal';font-variant-ligatures:normal;font-variant-caps:normal;font-variant-numeric:normal;font-variant-east-asian:normal;stroke-width:0.264583"
         id="path362833" />
      <path
         d="m 79.614345,34.5254 q -0.307302,0 -0.425813,0.07028 -0.118511,0.07028 -0.118511,0.239779 0,0.135047 0.08819,0.214973 0.08957,0.07855 0.242534,0.07855 0.21084,0 0.33762,-0.148828 0.128157,-0.150207 0.128157,-0.398253 v -0.0565 z m 0.50574,-0.104731 v 0.880566 h -0.253559 v -0.234266 q -0.08682,0.14056 -0.216352,0.208083 -0.129535,0.06615 -0.316948,0.06615 -0.237023,0 -0.377583,-0.132291 -0.139181,-0.13367 -0.139181,-0.356912 0,-0.260449 0.173632,-0.392741 0.175011,-0.132291 0.520898,-0.132291 h 0.355534 v -0.02481 q 0,-0.17501 -0.115755,-0.270095 -0.114377,-0.09646 -0.322461,-0.09646 -0.132291,0 -0.257693,0.03169 -0.125401,0.03169 -0.241156,0.09508 v -0.234267 q 0.139181,-0.05374 0.270095,-0.07993 0.130914,-0.02756 0.254937,-0.02756 0.334863,0 0.500227,0.173632 0.165365,0.173633 0.165365,0.52641 z"
         style="font-style:normal;font-variant:normal;font-weight:normal;font-stretch:normal;font-size:2.82222px;font-family:sans-serif;-inkscape-font-specification:'sans-serif, Normal';font-variant-ligatures:normal;font-variant-caps:normal;font-variant-numeric:normal;font-variant-east-asian:normal;stroke-width:0.264583"
         id="path362835" />
      <path
         d="m 80.887652,35.069725 v 0.818554 h -0.254937 v -2.130445 h 0.254937 V 33.9921 q 0.07993,-0.137804 0.201193,-0.20395 0.122646,-0.06752 0.292144,-0.06752 0.28112,0 0.45613,0.223242 0.176389,0.223242 0.176389,0.587043 0,0.363802 -0.176389,0.587044 -0.17501,0.223242 -0.45613,0.223242 -0.169498,0 -0.292144,-0.06615 -0.121267,-0.06752 -0.201193,-0.205327 z m 0.862651,-0.538813 q 0,-0.279741 -0.115755,-0.438215 -0.114377,-0.159853 -0.315571,-0.159853 -0.201193,0 -0.316948,0.159853 -0.114377,0.158474 -0.114377,0.438215 0,0.279742 0.114377,0.439594 0.115755,0.158475 0.316948,0.158475 0.201194,0 0.315571,-0.158475 0.115755,-0.159852 0.115755,-0.439594 z"
         style="font-style:normal;font-variant:normal;font-weight:normal;font-stretch:normal;font-size:2.82222px;font-family:sans-serif;-inkscape-font-specification:'sans-serif, Normal';font-variant-ligatures:normal;font-variant-caps:normal;font-variant-numeric:normal;font-variant-east-asian:normal;stroke-width:0.264583"
         id="path362837" />
      <path
         d="m 82.684613,33.319618 v 0.438216 h 0.522276 v 0.197059 h -0.522276 v 0.837846 q 0,0.188792 0.05099,0.242535 0.05236,0.05374 0.21084,0.05374 h 0.260449 v 0.212218 H 82.94644 q -0.293522,0 -0.405143,-0.108865 -0.111621,-0.110243 -0.111621,-0.399631 v -0.837846 h -0.186035 v -0.197059 h 0.186035 v -0.438216 z"
         style="font-style:normal;font-variant:normal;font-weight:normal;font-stretch:normal;font-size:2.82222px;font-family:sans-serif;-inkscape-font-specification:'sans-serif, Normal';font-variant-ligatures:normal;font-variant-caps:normal;font-variant-numeric:normal;font-variant-east-asian:normal;stroke-width:0.264583"
         id="path362839" />
      <path
         d="m 84.860533,34.466145 v 0.124023 h -1.16582 q 0.01654,0.261827 0.157097,0.399631 0.141938,0.136425 0.394118,0.136425 0.146072,0 0.282498,-0.03583 0.137804,-0.03583 0.272851,-0.107487 v 0.239778 q -0.136425,0.05788 -0.279741,0.08819 -0.143316,0.03032 -0.290766,0.03032 -0.369314,0 -0.585666,-0.214974 -0.214974,-0.214973 -0.214974,-0.581531 0,-0.37896 0.20395,-0.600824 0.205327,-0.223242 0.552593,-0.223242 0.311436,0 0.491959,0.201193 0.181901,0.199815 0.181901,0.544325 z m -0.253559,-0.07441 q -0.0028,-0.208084 -0.117133,-0.332107 -0.112999,-0.124024 -0.300412,-0.124024 -0.212218,0 -0.340375,0.11989 -0.12678,0.119889 -0.146072,0.337619 z"
         style="font-style:normal;font-variant:normal;font-weight:normal;font-stretch:normal;font-size:2.82222px;font-family:sans-serif;-inkscape-font-specification:'sans-serif, Normal';font-variant-ligatures:normal;font-variant-caps:normal;font-variant-numeric:normal;font-variant-east-asian:normal;stroke-width:0.264583"
         id="path362841" />
      <path
         d="m 86.171046,33.994856 q -0.04272,-0.02481 -0.09371,-0.03583 -0.04961,-0.0124 -0.110243,-0.0124 -0.214974,0 -0.330729,0.140559 -0.114377,0.139182 -0.114377,0.401009 v 0.813042 h -0.254937 v -1.543401 h 0.254937 v 0.239778 q 0.07993,-0.14056 0.208084,-0.208084 0.128157,-0.0689 0.311436,-0.0689 0.02618,0 0.05788,0.0041 0.03169,0.0028 0.07028,0.0096 z"
         style="font-style:normal;font-variant:normal;font-weight:normal;font-stretch:normal;font-size:2.82222px;font-family:sans-serif;-inkscape-font-specification:'sans-serif, Normal';font-variant-ligatures:normal;font-variant-caps:normal;font-variant-numeric:normal;font-variant-east-asian:normal;stroke-width:0.264583"
         id="path362843" />
      <path
         d="m 88.115456,33.157009 v 0.21084 h -0.242535 q -0.136425,0 -0.190169,0.05512 -0.05236,0.05512 -0.05236,0.198437 v 0.136426 h 0.417545 v 0.197059 h -0.417545 v 1.346342 H 87.37545 v -1.346342 h -0.242535 v -0.197059 h 0.242535 v -0.107487 q 0,-0.257693 0.119889,-0.374826 0.119889,-0.118512 0.380338,-0.118512 z"
         style="font-style:normal;font-variant:normal;font-weight:normal;font-stretch:normal;font-size:2.82222px;font-family:sans-serif;-inkscape-font-specification:'sans-serif, Normal';font-variant-ligatures:normal;font-variant-caps:normal;font-variant-numeric:normal;font-variant-east-asian:normal;stroke-width:0.264583"
         id="path362845" />
      <path
         d="m 88.925742,33.9356 q -0.20395,0 -0.322461,0.159853 -0.118511,0.158474 -0.118511,0.435459 0,0.276986 0.117133,0.436838 0.118511,0.158474 0.323839,0.158474 0.202571,0 0.321082,-0.159852 0.118511,-0.159852 0.118511,-0.43546 0,-0.274229 -0.118511,-0.434081 Q 89.128313,33.9356 88.925742,33.9356 Z m 0,-0.214973 q 0.330728,0 0.51952,0.214973 0.188791,0.214974 0.188791,0.595312 0,0.378961 -0.188791,0.595312 -0.188792,0.214974 -0.51952,0.214974 -0.332107,0 -0.520898,-0.214974 -0.187414,-0.216351 -0.187414,-0.595312 0,-0.380338 0.187414,-0.595312 0.188791,-0.214973 0.520898,-0.214973 z"
         style="font-style:normal;font-variant:normal;font-weight:normal;font-stretch:normal;font-size:2.82222px;font-family:sans-serif;-inkscape-font-specification:'sans-serif, Normal';font-variant-ligatures:normal;font-variant-caps:normal;font-variant-numeric:normal;font-variant-east-asian:normal;stroke-width:0.264583"
         id="path362847" />
      <path
         d="m 90.9487,33.994856 q -0.04272,-0.02481 -0.09371,-0.03583 -0.04961,-0.0124 -0.110243,-0.0124 -0.214974,0 -0.330729,0.140559 -0.114377,0.139182 -0.114377,0.401009 v 0.813042 h -0.254937 v -1.543401 h 0.254937 v 0.239778 q 0.07993,-0.14056 0.208083,-0.208084 0.128158,-0.0689 0.311437,-0.0689 0.02618,0 0.05788,0.0041 0.03169,0.0028 0.07028,0.0096 z"
         style="font-style:normal;font-variant:normal;font-weight:normal;font-stretch:normal;font-size:2.82222px;font-family:sans-serif;-inkscape-font-specification:'sans-serif, Normal';font-variant-ligatures:normal;font-variant-caps:normal;font-variant-numeric:normal;font-variant-east-asian:normal;stroke-width:0.264583"
         id="path362849" />
      <path
         d="m 93.356131,33.31135 v 0.271473 q -0.158474,-0.07579 -0.299034,-0.112999 -0.14056,-0.03721 -0.271473,-0.03721 -0.227376,0 -0.3514,0.08819 -0.122645,0.08819 -0.122645,0.250803 0,0.136426 0.0813,0.206706 0.08268,0.0689 0.311436,0.111621 l 0.168121,0.03445 q 0.311436,0.05926 0.458886,0.209462 0.148828,0.148828 0.148828,0.399631 0,0.299034 -0.201193,0.453374 -0.199815,0.15434 -0.587044,0.15434 -0.146072,0 -0.311436,-0.03307 -0.163987,-0.03307 -0.340375,-0.09784 v -0.286632 q 0.169498,0.09508 0.332106,0.143316 0.162609,0.04823 0.319705,0.04823 0.238401,0 0.367936,-0.09371 0.129536,-0.09371 0.129536,-0.26734 0,-0.151584 -0.09371,-0.237022 -0.09233,-0.08544 -0.304546,-0.128157 l -0.169499,-0.03307 q -0.311436,-0.06201 -0.450618,-0.194304 -0.139182,-0.132291 -0.139182,-0.367935 0,-0.272852 0.191547,-0.429948 0.192926,-0.157096 0.530545,-0.157096 0.144694,0 0.2949,0.02618 0.150206,0.02618 0.307302,0.07855 z"
         style="font-style:normal;font-variant:normal;font-weight:normal;font-stretch:normal;font-size:2.82222px;font-family:sans-serif;-inkscape-font-specification:'sans-serif, Normal';font-variant-ligatures:normal;font-variant-caps:normal;font-variant-numeric:normal;font-variant-east-asian:normal;stroke-width:0.264583"
         id="path362851" />
      <path
         d="m 95.223372,34.466145 v 0.124023 h -1.16582 q 0.01654,0.261827 0.157096,0.399631 0.141938,0.136425 0.394119,0.136425 0.146072,0 0.282498,-0.03583 0.137803,-0.03583 0.272851,-0.107487 v 0.239778 q -0.136426,0.05788 -0.279741,0.08819 -0.143316,0.03032 -0.290766,0.03032 -0.369314,0 -0.585666,-0.214974 -0.214974,-0.214973 -0.214974,-0.581531 0,-0.37896 0.20395,-0.600824 0.205327,-0.223242 0.552592,-0.223242 0.311437,0 0.49196,0.201193 0.181901,0.199815 0.181901,0.544325 z m -0.253559,-0.07441 Q 94.967057,34.183647 94.85268,34.059624 94.739681,33.9356 94.552268,33.9356 q -0.212218,0 -0.340376,0.11989 -0.126779,0.119889 -0.146072,0.337619 z"
         style="font-style:normal;font-variant:normal;font-weight:normal;font-stretch:normal;font-size:2.82222px;font-family:sans-serif;-inkscape-font-specification:'sans-serif, Normal';font-variant-ligatures:normal;font-variant-caps:normal;font-variant-numeric:normal;font-variant-east-asian:normal;stroke-width:0.264583"
         id="path362853" />
      <path
         d="m 96.922491,34.369682 v 0.931553 H 96.668932 V 34.37795 q 0,-0.219108 -0.08544,-0.327973 -0.08544,-0.108864 -0.256315,-0.108864 -0.205328,0 -0.323839,0.130913 -0.118511,0.130914 -0.118511,0.356912 v 0.872297 h -0.254937 v -1.543401 h 0.254937 v 0.239778 q 0.09095,-0.139182 0.213596,-0.208084 0.124023,-0.0689 0.285253,-0.0689 0.265962,0 0.402387,0.165364 0.136426,0.163986 0.136426,0.483691 z"
         style="font-style:normal;font-variant:normal;font-weight:normal;font-stretch:normal;font-size:2.82222px;font-family:sans-serif;-inkscape-font-specification:'sans-serif, Normal';font-variant-ligatures:normal;font-variant-caps:normal;font-variant-numeric:normal;font-variant-east-asian:normal;stroke-width:0.264583"
         id="path362855" />
      <path
         d="m 98.412149,33.803309 v 0.239778 q -0.107487,-0.05512 -0.223242,-0.08268 -0.115755,-0.02756 -0.239778,-0.02756 -0.188791,0 -0.283876,0.05788 -0.09371,0.05788 -0.09371,0.173633 0,0.08819 0.06752,0.139181 0.06752,0.04961 0.271474,0.09508 l 0.08682,0.01929 q 0.270095,0.05788 0.383094,0.163987 0.114378,0.104731 0.114378,0.293522 0,0.214974 -0.170877,0.340375 -0.169499,0.125401 -0.467155,0.125401 -0.124023,0 -0.259071,-0.0248 -0.133669,-0.02343 -0.282497,-0.07166 v -0.261827 q 0.14056,0.07304 0.276985,0.110243 0.136426,0.03583 0.270095,0.03583 0.179145,0 0.275608,-0.06063 0.09646,-0.06201 0.09646,-0.173633 0,-0.103353 -0.07028,-0.158474 -0.0689,-0.05512 -0.304547,-0.106109 l -0.08819,-0.02067 q -0.235644,-0.04961 -0.340375,-0.151585 -0.104731,-0.103352 -0.104731,-0.282497 0,-0.21773 0.15434,-0.336241 0.15434,-0.118511 0.438216,-0.118511 0.14056,0 0.264583,0.02067 0.124023,0.02067 0.228754,0.06201 z"
         style="font-style:normal;font-variant:normal;font-weight:normal;font-stretch:normal;font-size:2.82222px;font-family:sans-serif;-inkscape-font-specification:'sans-serif, Normal';font-variant-ligatures:normal;font-variant-caps:normal;font-variant-numeric:normal;font-variant-east-asian:normal;stroke-width:0.264583"
         id="path362857" />
      <path
         d="m 98.898598,33.757834 h 0.253559 v 1.543401 h -0.253559 z m 0,-0.600825 h 0.253559 v 0.321083 h -0.253559 z"
         style="font-style:normal;font-variant:normal;font-weight:normal;font-stretch:normal;font-size:2.82222px;font-family:sans-serif;-inkscape-font-specification:'sans-serif, Normal';font-variant-ligatures:normal;font-variant-caps:normal;font-variant-numeric:normal;font-variant-east-asian:normal;stroke-width:0.264583"
         id="path362859" />
      <path
         d="m 100.57705,33.994856 q -0.0427,-0.02481 -0.0937,-0.03583 -0.0496,-0.0124 -0.11024,-0.0124 -0.21498,0 -0.33073,0.140559 -0.114378,0.139182 -0.114378,0.401009 v 0.813042 h -0.254937 v -1.543401 h 0.254937 v 0.239778 q 0.07993,-0.14056 0.208088,-0.208084 0.12815,-0.0689 0.31143,-0.0689 0.0262,0 0.0579,0.0041 0.0317,0.0028 0.0703,0.0096 z"
         style="font-style:normal;font-variant:normal;font-weight:normal;font-stretch:normal;font-size:2.82222px;font-family:sans-serif;-inkscape-font-specification:'sans-serif, Normal';font-variant-ligatures:normal;font-variant-caps:normal;font-variant-numeric:normal;font-variant-east-asian:normal;stroke-width:0.264583"
         id="path362861" />
      <path
         d="m 100.84301,33.757834 h 0.25356 v 1.543401 h -0.25356 z m 0,-0.600825 h 0.25356 v 0.321083 h -0.25356 z"
         style="font-style:normal;font-variant:normal;font-weight:normal;font-stretch:normal;font-size:2.82222px;font-family:sans-serif;-inkscape-font-specification:'sans-serif, Normal';font-variant-ligatures:normal;font-variant-caps:normal;font-variant-numeric:normal;font-variant-east-asian:normal;stroke-width:0.264583"
         id="path362863" />
      <path
         d="m 102.22518,33.9356 q -0.20395,0 -0.32246,0.159853 -0.11851,0.158474 -0.11851,0.435459 0,0.276986 0.11713,0.436838 0.11851,0.158474 0.32384,0.158474 0.20257,0 0.32108,-0.159852 0.11851,-0.159852 0.11851,-0.43546 0,-0.274229 -0.11851,-0.434081 -0.11851,-0.161231 -0.32108,-0.161231 z m 0,-0.214973 q 0.33073,0 0.51952,0.214973 0.18879,0.214974 0.18879,0.595312 0,0.378961 -0.18879,0.595312 -0.18879,0.214974 -0.51952,0.214974 -0.33211,0 -0.5209,-0.214974 -0.18741,-0.216351 -0.18741,-0.595312 0,-0.380338 0.18741,-0.595312 0.18879,-0.214973 0.5209,-0.214973 z"
         style="font-style:normal;font-variant:normal;font-weight:normal;font-stretch:normal;font-size:2.82222px;font-family:sans-serif;-inkscape-font-specification:'sans-serif, Normal';font-variant-ligatures:normal;font-variant-caps:normal;font-variant-numeric:normal;font-variant-east-asian:normal;stroke-width:0.264583"
         id="path362865" />
      <path
         d="m 104.63674,34.369682 v 0.931553 h -0.25356 V 34.37795 q 0,-0.219108 -0.0854,-0.327973 -0.0854,-0.108864 -0.25632,-0.108864 -0.20533,0 -0.32384,0.130913 -0.11851,0.130914 -0.11851,0.356912 v 0.872297 h -0.25494 v -1.543401 h 0.25494 v 0.239778 q 0.0909,-0.139182 0.2136,-0.208084 0.12402,-0.0689 0.28525,-0.0689 0.26596,0 0.40239,0.165364 0.13642,0.163986 0.13642,0.483691 z"
         style="font-style:normal;font-variant:normal;font-weight:normal;font-stretch:normal;font-size:2.82222px;font-family:sans-serif;-inkscape-font-specification:'sans-serif, Normal';font-variant-ligatures:normal;font-variant-caps:normal;font-variant-numeric:normal;font-variant-east-asian:normal;stroke-width:0.264583"
         id="path362867" />
    </g>
    <g
       aria-label="SCD30 CO2 sensor"
       transform="rotate(-90)"
       id="text362781"
       style="font-style:normal;font-weight:normal;font-size:10.5833px;line-height:1.25;font-family:sans-serif;fill:#000000;fill-opacity:1;stroke:none;stroke-width:0.264583">
      <path
         d="m -50.231493,43.759966 v 0.271473 q -0.158474,-0.07579 -0.299034,-0.112999 -0.140559,-0.03721 -0.271473,-0.03721 -0.227376,0 -0.351399,0.08819 -0.122646,0.08819 -0.122646,0.250803 0,0.136426 0.0813,0.206706 0.08268,0.0689 0.311437,0.111621 l 0.16812,0.03445 q 0.311437,0.05926 0.458887,0.209462 0.148828,0.148828 0.148828,0.399631 0,0.299034 -0.201194,0.453374 -0.199815,0.15434 -0.587043,0.15434 -0.146072,0 -0.311437,-0.03307 -0.163986,-0.03307 -0.340375,-0.09784 v -0.286632 q 0.169499,0.09508 0.332107,0.143316 0.162608,0.04823 0.319705,0.04823 0.2384,0 0.367935,-0.09371 0.129536,-0.09371 0.129536,-0.26734 0,-0.151584 -0.09371,-0.237022 -0.09233,-0.08544 -0.304546,-0.128157 l -0.169498,-0.03307 q -0.311437,-0.06201 -0.450619,-0.194303 -0.139181,-0.132292 -0.139181,-0.367936 0,-0.272852 0.191547,-0.429948 0.192925,-0.157096 0.530544,-0.157096 0.144694,0 0.2949,0.02618 0.150206,0.02618 0.307302,0.07855 z"
         style="font-style:normal;font-variant:normal;font-weight:normal;font-stretch:normal;font-size:2.82222px;font-family:sans-serif;-inkscape-font-specification:'sans-serif, Normal';font-variant-ligatures:normal;font-variant-caps:normal;font-variant-numeric:normal;font-variant-east-asian:normal;stroke-width:0.264583"
         id="path362870" />
      <path
         d="m -48.132742,43.850916 v 0.293522 q -0.14056,-0.130914 -0.300412,-0.195681 -0.158474,-0.06477 -0.337619,-0.06477 -0.352778,0 -0.540191,0.216352 -0.187413,0.214974 -0.187413,0.622873 0,0.406521 0.187413,0.622872 0.187413,0.214974 0.540191,0.214974 0.179145,0 0.337619,-0.06477 0.159852,-0.06477 0.300412,-0.195681 v 0.290766 q -0.146072,0.09922 -0.310058,0.148828 -0.162609,0.04961 -0.34451,0.04961 -0.467154,0 -0.735871,-0.285253 -0.268718,-0.286632 -0.268718,-0.781347 0,-0.496094 0.268718,-0.781348 0.268717,-0.286631 0.735871,-0.286631 0.184657,0 0.347266,0.04961 0.163986,0.04823 0.307302,0.146072 z"
         style="font-style:normal;font-variant:normal;font-weight:normal;font-stretch:normal;font-size:2.82222px;font-family:sans-serif;-inkscape-font-specification:'sans-serif, Normal';font-variant-ligatures:normal;font-variant-caps:normal;font-variant-numeric:normal;font-variant-east-asian:normal;stroke-width:0.264583"
         id="path362872" />
      <path
         d="m -47.424431,43.921196 v 1.599901 h 0.336241 q 0.425814,0 0.622873,-0.192925 0.198437,-0.192925 0.198437,-0.609093 0,-0.413411 -0.198437,-0.604958 -0.197059,-0.192925 -0.622873,-0.192925 z m -0.278363,-0.228754 h 0.571885 q 0.598068,0 0.87781,0.249424 0.279741,0.248047 0.279741,0.777213 0,0.531923 -0.281119,0.781348 -0.28112,0.249424 -0.876432,0.249424 h -0.571885 z"
         style="font-style:normal;font-variant:normal;font-weight:normal;font-stretch:normal;font-size:2.82222px;font-family:sans-serif;-inkscape-font-specification:'sans-serif, Normal';font-variant-ligatures:normal;font-variant-caps:normal;font-variant-numeric:normal;font-variant-east-asian:normal;stroke-width:0.264583"
         id="path362874" />
      <path
         d="m -44.661466,44.640531 q 0.199815,0.04272 0.311436,0.177767 0.112999,0.135048 0.112999,0.333485 0,0.304546 -0.209462,0.471289 -0.209461,0.166742 -0.595312,0.166742 -0.129535,0 -0.267339,-0.02618 -0.136426,-0.02481 -0.282498,-0.07579 v -0.268718 q 0.115756,0.06752 0.253559,0.101975 0.137804,0.03445 0.28801,0.03445 0.261827,0 0.398253,-0.103353 0.137803,-0.103353 0.137803,-0.300412 0,-0.181901 -0.128157,-0.283876 -0.126779,-0.103352 -0.354156,-0.103352 h -0.239778 V 44.5358 h 0.250803 q 0.205327,0 0.314192,-0.0813 0.108865,-0.08268 0.108865,-0.237022 0,-0.158474 -0.112999,-0.242535 -0.111621,-0.08544 -0.321083,-0.08544 -0.114377,0 -0.24529,0.02481 -0.130914,0.0248 -0.28801,0.07717 v -0.248047 q 0.158474,-0.0441 0.296278,-0.06615 0.139182,-0.02205 0.261827,-0.02205 0.316949,0 0.501606,0.144694 0.184657,0.143316 0.184657,0.388606 0,0.170877 -0.09784,0.289388 -0.09784,0.117133 -0.278363,0.162608 z"
         style="font-style:normal;font-variant:normal;font-weight:normal;font-stretch:normal;font-size:2.82222px;font-family:sans-serif;-inkscape-font-specification:'sans-serif, Normal';font-variant-ligatures:normal;font-variant-caps:normal;font-variant-numeric:normal;font-variant-east-asian:normal;stroke-width:0.264583"
         id="path362876" />
      <path
         d="m -43.113931,43.875721 q -0.214974,0 -0.323839,0.212217 -0.107487,0.21084 -0.107487,0.635276 0,0.423057 0.107487,0.635275 0.108865,0.210839 0.323839,0.210839 0.216352,0 0.323839,-0.210839 0.108865,-0.212218 0.108865,-0.635275 0,-0.424436 -0.108865,-0.635276 -0.107487,-0.212217 -0.323839,-0.212217 z m 0,-0.220486 q 0.345887,0 0.527788,0.274229 0.183279,0.272852 0.183279,0.79375 0,0.51952 -0.183279,0.793749 -0.181901,0.272851 -0.527788,0.272851 -0.345887,0 -0.529166,-0.272851 -0.181901,-0.274229 -0.181901,-0.793749 0,-0.520898 0.181901,-0.79375 0.183279,-0.274229 0.529166,-0.274229 z"
         style="font-style:normal;font-variant:normal;font-weight:normal;font-stretch:normal;font-size:2.82222px;font-family:sans-serif;-inkscape-font-specification:'sans-serif, Normal';font-variant-ligatures:normal;font-variant-caps:normal;font-variant-numeric:normal;font-variant-east-asian:normal;stroke-width:0.264583"
         id="path362878" />
      <path
         d="m -39.500717,43.850916 v 0.293522 q -0.14056,-0.130914 -0.300412,-0.195681 -0.158474,-0.06477 -0.337619,-0.06477 -0.352778,0 -0.540191,0.216352 -0.187413,0.214974 -0.187413,0.622873 0,0.406521 0.187413,0.622872 0.187413,0.214974 0.540191,0.214974 0.179145,0 0.337619,-0.06477 0.159852,-0.06477 0.300412,-0.195681 v 0.290766 q -0.146072,0.09922 -0.310058,0.148828 -0.162609,0.04961 -0.34451,0.04961 -0.467154,0 -0.735871,-0.285253 -0.268718,-0.286632 -0.268718,-0.781347 0,-0.496094 0.268718,-0.781348 0.268717,-0.286631 0.735871,-0.286631 0.184657,0 0.347266,0.04961 0.163986,0.04823 0.307302,0.146072 z"
         style="font-style:normal;font-variant:normal;font-weight:normal;font-stretch:normal;font-size:2.82222px;font-family:sans-serif;-inkscape-font-specification:'sans-serif, Normal';font-variant-ligatures:normal;font-variant-caps:normal;font-variant-numeric:normal;font-variant-east-asian:normal;stroke-width:0.264583"
         id="path362880" />
      <path
         d="m -38.235679,43.881233 q -0.303169,0 -0.482313,0.225998 -0.177767,0.225998 -0.177767,0.615983 0,0.388606 0.177767,0.614604 0.179144,0.225998 0.482313,0.225998 0.303168,0 0.479556,-0.225998 0.177767,-0.225998 0.177767,-0.614604 0,-0.389985 -0.177767,-0.615983 -0.176388,-0.225998 -0.479556,-0.225998 z m 0,-0.225998 q 0.432703,0 0.691774,0.290766 0.259071,0.289387 0.259071,0.777213 0,0.486447 -0.259071,0.777213 -0.259071,0.289387 -0.691774,0.289387 -0.434082,0 -0.694531,-0.289387 -0.259071,-0.289388 -0.259071,-0.777213 0,-0.487826 0.259071,-0.777213 0.260449,-0.290766 0.694531,-0.290766 z"
         style="font-style:normal;font-variant:normal;font-weight:normal;font-stretch:normal;font-size:2.82222px;font-family:sans-serif;-inkscape-font-specification:'sans-serif, Normal';font-variant-ligatures:normal;font-variant-caps:normal;font-variant-numeric:normal;font-variant-east-asian:normal;stroke-width:0.264583"
         id="path362882" />
      <path
         d="m -36.58479,45.515585 h 0.971516 v 0.234266 h -1.306379 v -0.234266 q 0.158474,-0.163987 0.431325,-0.439594 0.27423,-0.276985 0.34451,-0.356912 0.133669,-0.150206 0.186035,-0.253558 0.05374,-0.104731 0.05374,-0.205328 0,-0.163986 -0.115755,-0.267339 -0.114377,-0.103353 -0.299034,-0.103353 -0.130914,0 -0.276986,0.04547 -0.144694,0.04548 -0.310058,0.137804 v -0.28112 q 0.16812,-0.06752 0.314192,-0.101974 0.146072,-0.03445 0.26734,-0.03445 0.319704,0 0.509873,0.159852 0.19017,0.159852 0.19017,0.427192 0,0.126779 -0.04823,0.241156 -0.04685,0.112999 -0.172254,0.267339 -0.03445,0.03996 -0.219108,0.231511 -0.184657,0.190169 -0.520898,0.5333 z"
         style="font-style:normal;font-variant:normal;font-weight:normal;font-stretch:normal;font-size:2.82222px;font-family:sans-serif;-inkscape-font-specification:'sans-serif, Normal';font-variant-ligatures:normal;font-variant-caps:normal;font-variant-numeric:normal;font-variant-east-asian:normal;stroke-width:0.264583"
         id="path362884" />
      <path
         d="m -33.183794,44.251925 v 0.239778 q -0.107487,-0.05512 -0.223242,-0.08268 -0.115755,-0.02756 -0.239779,-0.02756 -0.188791,0 -0.283875,0.05788 -0.09371,0.05788 -0.09371,0.173633 0,0.08819 0.06752,0.139181 0.06752,0.04961 0.271473,0.09508 l 0.08682,0.01929 q 0.270095,0.05788 0.383094,0.163987 0.114377,0.104731 0.114377,0.293522 0,0.214974 -0.170877,0.340375 -0.169498,0.125401 -0.467154,0.125401 -0.124023,0 -0.259071,-0.0248 -0.13367,-0.02343 -0.282498,-0.07166 v -0.261827 q 0.14056,0.07304 0.276986,0.110243 0.136425,0.03583 0.270095,0.03583 0.179145,0 0.275607,-0.06063 0.09646,-0.06201 0.09646,-0.173633 0,-0.103353 -0.07028,-0.158474 -0.0689,-0.05512 -0.304546,-0.106109 l -0.08819,-0.02067 q -0.235645,-0.04961 -0.340376,-0.151585 -0.10473,-0.103352 -0.10473,-0.282497 0,-0.21773 0.15434,-0.336241 0.15434,-0.118511 0.438216,-0.118511 0.140559,0 0.264583,0.02067 0.124023,0.02067 0.228754,0.06201 z"
         style="font-style:normal;font-variant:normal;font-weight:normal;font-stretch:normal;font-size:2.82222px;font-family:sans-serif;-inkscape-font-specification:'sans-serif, Normal';font-variant-ligatures:normal;font-variant-caps:normal;font-variant-numeric:normal;font-variant-east-asian:normal;stroke-width:0.264583"
         id="path362886" />
      <path
         d="m -31.377188,44.914761 v 0.124023 h -1.165819 q 0.01654,0.261827 0.157096,0.399631 0.141938,0.136426 0.394119,0.136426 0.146072,0 0.282497,-0.03583 0.137804,-0.03583 0.272852,-0.107487 v 0.239778 q -0.136426,0.05788 -0.279742,0.08819 -0.143316,0.03032 -0.290766,0.03032 -0.369314,0 -0.585665,-0.214973 -0.214974,-0.214974 -0.214974,-0.581532 0,-0.37896 0.203949,-0.600824 0.205328,-0.223242 0.552593,-0.223242 0.311437,0 0.49196,0.201193 0.1819,0.199815 0.1819,0.544325 z m -0.253558,-0.07441 q -0.0028,-0.208084 -0.117134,-0.332107 -0.112999,-0.124024 -0.300412,-0.124024 -0.212217,0 -0.340375,0.11989 -0.126779,0.119889 -0.146072,0.337619 z"
         style="font-style:normal;font-variant:normal;font-weight:normal;font-stretch:normal;font-size:2.82222px;font-family:sans-serif;-inkscape-font-specification:'sans-serif, Normal';font-variant-ligatures:normal;font-variant-caps:normal;font-variant-numeric:normal;font-variant-east-asian:normal;stroke-width:0.264583"
         id="path362888" />
      <path
         d="m -29.678068,44.818298 v 0.931553 h -0.253559 v -0.923285 q 0,-0.219108 -0.08544,-0.327973 -0.08544,-0.108864 -0.256315,-0.108864 -0.205328,0 -0.323839,0.130913 -0.118511,0.130914 -0.118511,0.356912 v 0.872297 h -0.254937 V 44.20645 h 0.254937 v 0.239778 q 0.09095,-0.139182 0.213595,-0.208084 0.124024,-0.0689 0.285254,-0.0689 0.265961,0 0.402387,0.165364 0.136426,0.163986 0.136426,0.483691 z"
         style="font-style:normal;font-variant:normal;font-weight:normal;font-stretch:normal;font-size:2.82222px;font-family:sans-serif;-inkscape-font-specification:'sans-serif, Normal';font-variant-ligatures:normal;font-variant-caps:normal;font-variant-numeric:normal;font-variant-east-asian:normal;stroke-width:0.264583"
         id="path362890" />
      <path
         d="m -28.18841,44.251925 v 0.239778 q -0.107487,-0.05512 -0.223242,-0.08268 -0.115755,-0.02756 -0.239778,-0.02756 -0.188792,0 -0.283876,0.05788 -0.09371,0.05788 -0.09371,0.173633 0,0.08819 0.06752,0.139181 0.06752,0.04961 0.271474,0.09508 l 0.08682,0.01929 q 0.270095,0.05788 0.383094,0.163987 0.114377,0.104731 0.114377,0.293522 0,0.214974 -0.170876,0.340375 -0.169499,0.125401 -0.467155,0.125401 -0.124023,0 -0.259071,-0.0248 -0.13367,-0.02343 -0.282498,-0.07166 v -0.261827 q 0.14056,0.07304 0.276986,0.110243 0.136426,0.03583 0.270095,0.03583 0.179145,0 0.275608,-0.06063 0.09646,-0.06201 0.09646,-0.173633 0,-0.103353 -0.07028,-0.158474 -0.0689,-0.05512 -0.304546,-0.106109 l -0.08819,-0.02067 q -0.235645,-0.04961 -0.340375,-0.151585 -0.104731,-0.103352 -0.104731,-0.282497 0,-0.21773 0.15434,-0.336241 0.15434,-0.118511 0.438216,-0.118511 0.14056,0 0.264583,0.02067 0.124023,0.02067 0.228754,0.06201 z"
         style="font-style:normal;font-variant:normal;font-weight:normal;font-stretch:normal;font-size:2.82222px;font-family:sans-serif;-inkscape-font-specification:'sans-serif, Normal';font-variant-ligatures:normal;font-variant-caps:normal;font-variant-numeric:normal;font-variant-east-asian:normal;stroke-width:0.264583"
         id="path362892" />
      <path
         d="m -27.103895,44.384216 q -0.203949,0 -0.322461,0.159853 -0.118511,0.158474 -0.118511,0.435459 0,0.276986 0.117133,0.436838 0.118512,0.158475 0.323839,0.158475 0.202572,0 0.321083,-0.159853 0.118511,-0.159852 0.118511,-0.43546 0,-0.274229 -0.118511,-0.434081 -0.118511,-0.161231 -0.321083,-0.161231 z m 0,-0.214973 q 0.330729,0 0.51952,0.214973 0.188791,0.214974 0.188791,0.595312 0,0.378961 -0.188791,0.595313 -0.188791,0.214973 -0.51952,0.214973 -0.332107,0 -0.520898,-0.214973 -0.187413,-0.216352 -0.187413,-0.595313 0,-0.380338 0.187413,-0.595312 0.188791,-0.214973 0.520898,-0.214973 z"
         style="font-style:normal;font-variant:normal;font-weight:normal;font-stretch:normal;font-size:2.82222px;font-family:sans-serif;-inkscape-font-specification:'sans-serif, Normal';font-variant-ligatures:normal;font-variant-caps:normal;font-variant-numeric:normal;font-variant-east-asian:normal;stroke-width:0.264583"
         id="path362894" />
      <path
         d="m -25.080936,44.443472 q -0.04272,-0.02481 -0.09371,-0.03583 -0.04961,-0.0124 -0.110243,-0.0124 -0.214973,0 -0.330728,0.140559 -0.114378,0.139182 -0.114378,0.401009 v 0.813042 h -0.254936 V 44.20645 h 0.254936 v 0.239778 q 0.07993,-0.14056 0.208084,-0.208084 0.128157,-0.0689 0.311436,-0.0689 0.02618,0 0.05788,0.0041 0.03169,0.0028 0.07028,0.0096 z"
         style="font-style:normal;font-variant:normal;font-weight:normal;font-stretch:normal;font-size:2.82222px;font-family:sans-serif;-inkscape-font-specification:'sans-serif, Normal';font-variant-ligatures:normal;font-variant-caps:normal;font-variant-numeric:normal;font-variant-east-asian:normal;stroke-width:0.264583"
         id="path362896" />
    </g>
  </g>
  <g
     inkscape:label="Dwgs.User"
     inkscape:groupmode="layer"
     id="g31" />
  <g
     inkscape:label="Drill"
     inkscape:groupmode="layer"
     id="g33">
    <circle
       style="fill:none;stroke:#000000;stroke-width:0.264583;stroke-opacity:1"
       id="path362560"
       cx="20.146576"
       cy="15.961028"
       r="1.1" />
    <circle
       style="fill:none;stroke:#000000;stroke-width:0.264583;stroke-opacity:1"
       id="circle362562"
       cx="45.072174"
       cy="15.961028"
       r="1.1"
       inkscape:transform-center-x="-0.2843934"
       inkscape:transform-center-y="0.74107234" />
    <circle
       style="fill:none;stroke:#000000;stroke-width:0.264583;stroke-opacity:1"
       id="circle362594"
       cx="45.072174"
       cy="60.67569"
       r="1.1"
       inkscape:transform-center-x="-0.2843934"
       inkscape:transform-center-y="0.74107234" />
    <circle
       style="fill:none;stroke:#000000;stroke-width:0.264583;stroke-opacity:1"
       id="circle362596"
       cx="20.146576"
       cy="60.67569"
       r="1.1"
       inkscape:transform-center-x="-0.2843934"
       inkscape:transform-center-y="0.74107234" />
  </g>
</svg>
