%TF.GenerationSoftware,KiCad,Pcbnew,5.1.6*%
%TF.CreationDate,2020-10-29T14:33:52+01:00*%
%TF.ProjectId,Grove-SCD30,47726f76-652d-4534-9344-33302e6b6963,rev?*%
%TF.SameCoordinates,Original*%
%TF.FileFunction,Legend,Bot*%
%TF.FilePolarity,Positive*%
%FSLAX46Y46*%
G04 Gerber Fmt 4.6, Leading zero omitted, Abs format (unit mm)*
G04 Created by KiCad (PCBNEW 5.1.6) date 2020-10-29 14:33:52*
%MOMM*%
%LPD*%
G01*
G04 APERTURE LIST*
%ADD10C,0.120000*%
%ADD11C,0.150000*%
G04 APERTURE END LIST*
D10*
%TO.C,J2*%
X147645000Y-93437000D02*
X147645000Y-94937000D01*
X149145000Y-93437000D02*
X147645000Y-93437000D01*
X148885000Y-102297000D02*
X158105000Y-102297000D01*
X157105000Y-94177000D02*
X158105000Y-94177000D01*
X157105000Y-93677000D02*
X157105000Y-94177000D01*
X149885000Y-93677000D02*
X157105000Y-93677000D01*
X149885000Y-94177000D02*
X149885000Y-93677000D01*
X148885000Y-94177000D02*
X149885000Y-94177000D01*
X159105000Y-95177000D02*
X159105000Y-101297000D01*
X147885000Y-95177000D02*
X147885000Y-101297000D01*
X147885000Y-95177000D02*
G75*
G02*
X148885000Y-94177000I1000000J0D01*
G01*
X158105000Y-94177000D02*
G75*
G02*
X159105000Y-95177000I0J-1000000D01*
G01*
X148885000Y-102297000D02*
G75*
G02*
X147885000Y-101297000I0J1000000D01*
G01*
X159105000Y-101297000D02*
G75*
G02*
X158105000Y-102297000I-1000000J0D01*
G01*
%TO.C,J1*%
X141411000Y-57344000D02*
X140081000Y-57344000D01*
X141411000Y-58674000D02*
X141411000Y-57344000D01*
X141411000Y-59944000D02*
X138751000Y-59944000D01*
X138751000Y-59944000D02*
X138751000Y-75244000D01*
X141411000Y-59944000D02*
X141411000Y-75244000D01*
X141411000Y-75244000D02*
X138751000Y-75244000D01*
%TO.C,J2*%
D11*
X146247380Y-97653666D02*
X146961666Y-97653666D01*
X147104523Y-97606047D01*
X147199761Y-97510809D01*
X147247380Y-97367952D01*
X147247380Y-97272714D01*
X146342619Y-98082238D02*
X146295000Y-98129857D01*
X146247380Y-98225095D01*
X146247380Y-98463190D01*
X146295000Y-98558428D01*
X146342619Y-98606047D01*
X146437857Y-98653666D01*
X146533095Y-98653666D01*
X146675952Y-98606047D01*
X147247380Y-98034619D01*
X147247380Y-98653666D01*
%TO.C,J1*%
X140414333Y-55796380D02*
X140414333Y-56510666D01*
X140461952Y-56653523D01*
X140557190Y-56748761D01*
X140700047Y-56796380D01*
X140795285Y-56796380D01*
X139414333Y-56796380D02*
X139985761Y-56796380D01*
X139700047Y-56796380D02*
X139700047Y-55796380D01*
X139795285Y-55939238D01*
X139890523Y-56034476D01*
X139985761Y-56082095D01*
%TD*%
M02*
